
 #     #                            
 #  #  # #####    ##   ##### #    # 
 #  #  # #    #  #  #    #   #    # 
 #  #  # #    # #    #   #   ###### 
 #  #  # #####  ######   #   #    # 
 #  #  # #   #  #    #   #   #    # 
  ## ##  #    # #    #   #   #    # 
                                    

File Name : The Tourist 2010 1080p BRRip H264 Wrath.mp4

File Size
Format : MPEG-4
Format profile : Base Media
Codec ID : isom
File size : 3.74 GiB
Duration : 1h 43mn
Overall bit rate : 5 172 Kbps
Video
ID : 1
Format : AVC
Format/Info : Advanced Video Codec
Format profile : High@L4.1
Format settings, CABAC : Yes
Format settings, ReFrames : 3 frames
Codec ID : avc1
Codec ID/Info : Advanced Video Coding
Duration : 1h 43mn
Bit rate mode : Variable
Bit rate : 4 549 Kbps
Maximum bit rate : 19.8 Mbps
Width : 1 920 pixels
Height : 800 pixels
Display aspect ratio : 2.40:1
Frame rate mode : Constant
Frame rate : 23.976 fps
Resolution : 24 bits
Colorimetry : 4:2:0
Scan type : Progressive
Bits/(Pixel*Frame) : 0.124
Stream size : 3.29 GiB (88%)
Audio #1
ID : 2
Format : AAC
Format/Info : Advanced Audio Codec
Format version : Version 4
Format profile : LC
Format settings, SBR : No
Codec ID : 40
Duration : 1h 43mn
Bit rate mode : Variable
Bit rate : 188 Kbps
Maximum bit rate : 253 Kbps
Channel(s) : 2 channels
Channel positions : L R
Sampling rate : 48.0 KHz
Resolution : 16 bits
Stream size : 139 MiB (4%)
Audio #2
ID : 3
Format : AAC
Format/Info : Advanced Audio Codec
Format version : Version 4
Format profile : LC
Format settings, SBR : No
Codec ID : 40
Duration : 1h 43mn
Bit rate mode : Variable
Bit rate : 431 Kbps
Maximum bit rate : 518 Kbps
Channel(s) : 6 channels
Channel positions : Front: L C R, Rear: L R, LFE
Sampling rate : 48.0 KHz
Resolution : 16 bits
Stream size : 319 MiB (8%)

English SRT : External
Language : English

Release Date: 10 December 2010 (USA) 
Genre: Action | Drama | Romance 
Plot: Elise (Angelina Jolie) sits next to an American tourist, Frank (Johnny Depp), on a train going to Venice. She has chosen him as a decoy, making believe that he is her lover who is wanted for police. Not only will they need to evade the police, but also the mobster whose money her lover stole.
Cast:
Johnny Depp ... Frank Tupelo
Angelina Jolie ... Elise Clifton-Ward
Paul Bettany ... Inspector John Acheson
Timothy Dalton ... Chief Inspector Jones
Steven Berkoff ... Reginald Shaw
Rufus Sewell ... The Englishman
Christian De Sica ... Colonnello Lombardi
Alessio Boni ... Sergente Cerato
Daniele Pecci ... Tenente Narduzzi
Giovanni Guidelli ... Tenente Tommassini
Raoul Bova ... Conte Filippo Gaggia
Bruno Wolkowitch ... Capitaine Courson
Marc Ruchmann ... Brigadier Kaiser
Julien Baumgartner ... Brigadier Ricuort
François Vincentelli ... Brigadier Marion






================================== 
http://thepiratebay.org/user/hiest
==================================





Screenshots:
 
http://leetleech.org/images/03109299399841107270.png
 
http://leetleech.org/images/58330443050529772508.png
 
http://leetleech.org/images/19177966253169252993.png
 
http://leetleech.org/images/46895707666716178340.png


 #     #                            
 #  #  # #####    ##   ##### #    # 
 #  #  # #    #  #  #    #   #    # 
 #  #  # #    # #    #   #   ###### 
 #  #  # #####  ######   #   #    # 
 #  #  # #   #  #    #   #   #    # 
  ## ##  #    # #    #   #   #    # 
                                    
